<?xml version="1.0" encoding="utf-8"?>
<!-- Generator: Adobe Illustrator 27.1.1, SVG Export Plug-In . SVG Version: 6.00 Build 0)  -->
<svg version="1.1" id="Layer_1" xmlns="http://www.w3.org/2000/svg" xmlns:xlink="http://www.w3.org/1999/xlink" x="0px" y="0px"
	 viewBox="0 0 432 432" style="enable-background:new 0 0 432 432;" xml:space="preserve">
<style type="text/css">
	.st0{opacity:0.8;}
	.st1{fill:#FFFFFF;}
	.st2{opacity:0.6;}
	.st3{opacity:0.4;}
</style>
<g class="st0">
	<path class="st1" d="M285.3599854,71.3900146l-152.7199707,88.1699829l-69.3599854-40.0499878l125.5899658-72.5
		c16.789978-9.7000122,37.4700317-9.7000122,54.2600098,0L285.3599854,71.3900146z"/>
</g>
<g class="st0">
	<path class="st1" d="M368.7199707,119.5100098l-125.5799561,72.5099487c-16.7999878,9.6900024-37.4800415,9.6900024-54.2800293,0
		l-42.2199707-24.3799438l152.7199707-88.1700439L368.7199707,119.5100098z"/>
</g>
<g class="st2">
	<path class="st1" d="M250.3348999,204.4903717l125.585022-72.5094147v145.0174561
		c0,19.389801-10.344696,37.3066406-27.137085,47.0010071l-125.5826416,72.4996033V251.4900055
		C223.2001953,232.1011658,233.5438385,214.1850739,250.3348999,204.4903717z"/>
</g>
<g class="st3">
	<path class="st1" d="M56.0800781,276.9984131V131.980957l125.585022,72.5094147
		c16.7910614,9.6947021,27.1347046,27.6107941,27.1347046,46.9996338v145.0090179L83.2171555,323.9994202
		C66.4247589,314.3050537,56.0800781,296.3882141,56.0800781,276.9984131z"/>
</g>
</svg>
