<?xml version="1.0" encoding="utf-8"?>
<!-- Generator: Adobe Illustrator 27.2.0, SVG Export Plug-In . SVG Version: 6.00 Build 0)  -->
<svg version="1.1" id="Layer_1" xmlns="http://www.w3.org/2000/svg" xmlns:xlink="http://www.w3.org/1999/xlink" x="0px" y="0px"
	 viewBox="0 0 53 61" style="enable-background:new 0 0 53 61;" xml:space="preserve">
<style type="text/css">
	.st0{fill:#95BF47;}
	.st1{fill:#5E8E3E;}
	.st2{fill:#FFFFFF;}
</style>
<path class="st0" d="M46.4,11.6c0-0.3-0.3-0.5-0.5-0.5c-0.2,0-4.5-0.1-4.5-0.1s-3.6-3.5-3.9-3.8c-0.4-0.4-1-0.2-1.3-0.2
	c0,0-0.7,0.2-1.8,0.6c-0.2-0.6-0.5-1.4-0.9-2.1c-1.3-2.4-3.1-3.7-5.4-3.7c0,0,0,0,0,0c-0.2,0-0.3,0-0.5,0c-0.1-0.1-0.1-0.2-0.2-0.2
	c-1-1-2.2-1.6-3.7-1.5c-2.9,0.1-5.8,2.2-8.1,5.9c-1.7,2.6-2.9,5.9-3.3,8.5c-3.3,1-5.7,1.8-5.7,1.8c-1.7,0.5-1.7,0.6-2,2.2
	C4.4,19.5,0,53.6,0,53.6L36.9,60l16-4C52.9,56,46.4,11.9,46.4,11.6z M32.5,8.1c-0.9,0.3-1.8,0.6-2.9,0.9c0-1.5-0.2-3.5-0.9-5.3
	C30.9,4.1,32,6.6,32.5,8.1z M27.7,9.6c-1.9,0.6-4,1.3-6.2,1.9c0.6-2.3,1.7-4.6,3.1-6c0.5-0.6,1.2-1.2,2.1-1.5
	C27.5,5.6,27.7,8,27.7,9.6z M23.7,1.9c0.7,0,1.3,0.1,1.7,0.5c-0.8,0.4-1.5,1-2.3,1.8c-1.8,2-3.3,5.1-3.8,8c-1.8,0.5-3.5,1.1-5.1,1.6
	C15.3,9.1,19.2,2.1,23.7,1.9z"/>
<path class="st1" d="M45.9,11.1c-0.2,0-4.5-0.1-4.5-0.1s-3.6-3.5-3.9-3.8C37.3,7,37.1,7,36.9,6.9l0,53.1l16-4c0,0-6.5-44.2-6.6-44.5
	C46.3,11.3,46.1,11.1,45.9,11.1z"/>
<path class="st2" d="M28.1,19.3l-1.9,7c0,0-2.1-0.9-4.5-0.8c-3.6,0.2-3.6,2.5-3.6,3.1c0.2,3.1,8.4,3.8,8.8,11.1
	c0.4,5.7-3,9.7-7.9,10c-5.9,0.4-9.1-3.1-9.1-3.1l1.2-5.3c0,0,3.3,2.5,5.9,2.3c1.7-0.1,2.3-1.5,2.3-2.5c-0.3-4.1-6.9-3.8-7.3-10.5
	c-0.4-5.6,3.3-11.3,11.5-11.8C26.5,18.5,28.1,19.3,28.1,19.3z"/>
</svg>
